<svg width="99" height="36" viewBox="0 0 99 36" fill="none" xmlns="http://www.w3.org/2000/svg">
<path d="M36.9878 15.0792C36.9878 6.79243 30.3638 0 22.1838 0C17.2491 0 12.8924 2.49056 10.225 6.24903C4.31228 7.9245 0 13.4037 0 19.9245C0 27.8037 6.26837 34.1433 13.9593 34.1433C15.1597 34.1433 16.3155 33.9621 17.4269 33.6904V27.6678L8.71347 18.8377V18.7924C8.40228 17.5697 8.22445 16.3471 8.22445 15.0792C8.22445 12.1811 9.06913 9.5094 10.5362 7.29054C13.0258 3.39621 17.338 0.860375 22.2282 0.860375C29.9192 0.860375 36.1876 7.24526 36.1876 15.0792C36.1876 22.0527 31.2085 27.8942 24.6733 29.0716C26.7183 26.581 27.9187 23.4112 27.9187 19.9245C27.9187 19.5169 27.9187 19.1546 27.8742 18.7471L19.1163 27.5773V33.1018C20.8501 32.3772 22.4061 31.3357 23.7398 29.9772C31.2085 29.298 36.9878 22.8678 36.9878 15.0792Z" fill="white"/>
<path d="M8.98047 16.9807L18.2719 26.4448L27.6522 16.9807C27.5633 16.4826 27.4299 15.9844 27.2521 15.4863L18.2719 24.5429L9.38057 15.5316C9.20275 15.9844 9.06938 16.4826 8.98047 16.9807Z" fill="white"/>
<path d="M11.4258 11.4567L18.2276 18.3849L25.1184 11.4114C24.8516 11.0491 24.5849 10.6869 24.2737 10.3699L18.2276 16.4831L12.2705 10.4152C12.0037 10.7774 11.6925 11.0944 11.4258 11.4567Z" fill="white"/>
<path d="M9.95703 13.9922L18.2704 22.4148L26.6282 13.9469C26.4504 13.5393 26.2281 13.0865 25.9614 12.679L18.2259 20.4676L10.6239 12.7242C10.3571 13.1318 10.1349 13.5393 9.95703 13.9922Z" fill="white"/>
<path d="M23.2497 9.32815C22.8941 9.01117 22.5829 8.73947 22.2272 8.46777L18.2706 12.4527L14.3584 8.51306C14.0028 8.78476 13.6471 9.05645 13.3359 9.37343L18.2706 14.3545L23.2497 9.32815Z" fill="white"/>
<path d="M8.98047 16.9814L18.2719 26.4455L27.6522 16.9814C27.5633 16.4833 27.4299 15.9852 27.2521 15.4871L18.2719 24.5436L9.38057 15.5323C9.20275 15.9852 9.06938 16.4833 8.98047 16.9814Z" fill="white"/>
<path d="M11.4258 11.4572L18.2276 18.3854L25.1184 11.4119C24.8516 11.0496 24.5849 10.6873 24.2737 10.3704L18.2276 16.4835L12.2705 10.4156C12.0037 10.7779 11.6925 11.0949 11.4258 11.4572Z" fill="white"/>
<path d="M9.95898 13.9926L18.2723 22.4153L26.6302 13.9474C26.4523 13.5398 26.2301 13.087 25.9633 12.6794L18.2279 20.4681L10.6258 12.7247C10.3591 13.1323 10.1368 13.5398 9.95898 13.9926Z" fill="white"/>
<path d="M23.2497 9.32864C22.8941 9.01166 22.5829 8.73996 22.2272 8.46826L18.2706 12.4532L14.3584 8.51355C14.0028 8.78524 13.6471 9.05694 13.3359 9.37392L18.2706 14.355L23.2497 9.32864Z" fill="white"/>
<path d="M46.1021 12.6785C46.3243 12.0445 46.7689 10.6861 46.7689 10.4144C46.7689 8.87475 45.3463 8.82946 43.8348 8.60305V7.74268H50.9478L60.1948 33.735H56.2381L53.3929 25.72H43.7014L40.8562 33.735H38.5L46.1021 12.6785ZM44.4127 23.9087H52.815L48.5027 12.6332L44.4127 23.9087Z" fill="white"/>
<path d="M64.0615 12.9955C64.0615 9.19173 63.9725 9.19173 60.416 8.60305V7.74268H72.2415C76.9094 7.74268 79.9324 10.3238 79.9324 14.8974C79.9324 22.1879 74.242 22.1879 69.5296 22.1879H68.1959V33.735H64.017V12.9955H64.0615ZM68.2404 20.3766H70.1965C73.175 20.3766 75.7535 19.3804 75.7535 14.7162C75.7535 10.3691 73.753 9.55399 70.3743 9.55399C68.3293 9.55399 68.1959 10.2785 68.1959 11.8634V20.3766H68.2404Z" fill="white"/>
<path d="M96.8259 10.8673C95.8034 10.3692 93.0026 9.14652 90.024 9.14652C88.0235 9.14652 86.3786 10.3239 86.3786 12.905C86.3786 18.837 98.693 18.2937 98.693 26.5804C98.693 32.1049 94.4252 34.1879 89.1794 34.1879C86.2452 34.1879 83.3556 33.3728 82.5553 33.1917V30.0672C83.7112 30.7464 86.7787 32.3766 89.8017 32.3766C92.2024 32.3766 94.5586 31.3804 94.5586 27.8483C94.5586 21.5993 82.2441 22.188 82.2441 14.0371C82.2441 9.78048 85.445 7.33521 90.7798 7.33521C93.4027 7.33521 95.8478 7.83332 96.8259 8.01445V10.8673Z" fill="white"/>
</svg>
